<svg xmlns="http://www.w3.org/2000/svg" width="1024" height="1024" viewBox="0 0 1024 1024">
  <defs>
    <linearGradient id="background" x1="96" y1="72" x2="912" y2="952" gradientUnits="userSpaceOnUse">
      <stop offset="0" stop-color="#07162E"/>
      <stop offset="1" stop-color="#102B4B"/>
    </linearGradient>
    <radialGradient id="glow" cx="0" cy="0" r="1" gradientTransform="translate(690 264) rotate(135) scale(620)">
      <stop offset="0" stop-color="#246E9C" stop-opacity="0.34"/>
      <stop offset="1" stop-color="#07162E" stop-opacity="0"/>
    </radialGradient>
    <linearGradient id="mark" x1="292" y1="816" x2="786" y2="230" gradientUnits="userSpaceOnUse">
      <stop offset="0" stop-color="#2388FF"/>
      <stop offset="0.52" stop-color="#25C8DE"/>
      <stop offset="1" stop-color="#35E1B9"/>
    </linearGradient>
    <filter id="shadow" x="180" y="150" width="700" height="760" filterUnits="userSpaceOnUse">
      <feDropShadow dx="0" dy="28" stdDeviation="24" flood-color="#020916" flood-opacity="0.32"/>
    </filter>
  </defs>

  <rect width="1024" height="1024" fill="url(#background)"/>
  <rect width="1024" height="1024" fill="url(#glow)"/>

  <g filter="url(#shadow)" fill="url(#mark)">
    <path d="M300 794L390 250C399 196 445 156 500 156H769C812 156 846 191 846 234C846 277 812 312 769 312H529L499 493H687C729 493 763 527 763 569C763 611 729 645 687 645H474L446 816C438 866 395 904 344 904C282 904 268 851 300 794Z"/>
  </g>

  <path d="M731 156H823L778 312H686L731 156Z" fill="#49EDC4" fill-opacity="0.72"/>
  <path d="M656 493H748L704 645H612L656 493Z" fill="#32D7C7" fill-opacity="0.56"/>
</svg>
